<svg width="1990" height="763" viewBox="0 0 1990 763" fill="none" xmlns="http://www.w3.org/2000/svg">
<rect width="1990" height="763" fill="white"/>
<g filter="url(#filter0_d_5_45)">
<path d="M345 170C345 165.582 348.582 162 353 162H470C474.418 162 478 165.582 478 170V217C478 221.418 474.418 225 470 225H353C348.582 225 345 221.418 345 217V170Z" fill="#FEEBEA"/>
<path d="M392.133 188.633L388.367 199H386.828L391.164 187.625H392.156L392.133 188.633ZM395.289 199L391.516 188.633L391.492 187.625H392.484L396.836 199H395.289ZM395.094 194.789V196.023H388.703V194.789H395.094ZM399.586 192.352V199H398.141V190.547H399.508L399.586 192.352ZM399.242 194.453L398.641 194.43C398.646 193.852 398.732 193.318 398.898 192.828C399.065 192.333 399.299 191.904 399.602 191.539C399.904 191.174 400.263 190.893 400.68 190.695C401.102 190.492 401.568 190.391 402.078 190.391C402.495 190.391 402.87 190.448 403.203 190.562C403.536 190.672 403.82 190.849 404.055 191.094C404.294 191.339 404.477 191.656 404.602 192.047C404.727 192.432 404.789 192.904 404.789 193.461V199H403.336V193.445C403.336 193.003 403.271 192.648 403.141 192.383C403.01 192.112 402.82 191.917 402.57 191.797C402.32 191.672 402.013 191.609 401.648 191.609C401.289 191.609 400.961 191.685 400.664 191.836C400.372 191.987 400.12 192.195 399.906 192.461C399.698 192.727 399.534 193.031 399.414 193.375C399.299 193.714 399.242 194.073 399.242 194.453ZM408.555 190.547V199H407.102V190.547H408.555ZM406.992 188.305C406.992 188.07 407.062 187.872 407.203 187.711C407.349 187.549 407.562 187.469 407.844 187.469C408.12 187.469 408.331 187.549 408.477 187.711C408.628 187.872 408.703 188.07 408.703 188.305C408.703 188.529 408.628 188.721 408.477 188.883C408.331 189.039 408.12 189.117 407.844 189.117C407.562 189.117 407.349 189.039 407.203 188.883C407.062 188.721 406.992 188.529 406.992 188.305ZM412.312 192.227V199H410.859V190.547H412.234L412.312 192.227ZM412.016 194.453L411.344 194.43C411.349 193.852 411.424 193.318 411.57 192.828C411.716 192.333 411.932 191.904 412.219 191.539C412.505 191.174 412.862 190.893 413.289 190.695C413.716 190.492 414.211 190.391 414.773 190.391C415.169 190.391 415.534 190.448 415.867 190.562C416.201 190.672 416.49 190.846 416.734 191.086C416.979 191.326 417.169 191.633 417.305 192.008C417.44 192.383 417.508 192.836 417.508 193.367V199H416.062V193.438C416.062 192.995 415.987 192.641 415.836 192.375C415.69 192.109 415.482 191.917 415.211 191.797C414.94 191.672 414.622 191.609 414.258 191.609C413.831 191.609 413.474 191.685 413.188 191.836C412.901 191.987 412.672 192.195 412.5 192.461C412.328 192.727 412.203 193.031 412.125 193.375C412.052 193.714 412.016 194.073 412.016 194.453ZM417.492 193.656L416.523 193.953C416.529 193.49 416.604 193.044 416.75 192.617C416.901 192.19 417.117 191.81 417.398 191.477C417.685 191.143 418.036 190.88 418.453 190.688C418.87 190.49 419.346 190.391 419.883 190.391C420.336 190.391 420.737 190.451 421.086 190.57C421.44 190.69 421.737 190.875 421.977 191.125C422.221 191.37 422.406 191.685 422.531 192.07C422.656 192.456 422.719 192.914 422.719 193.445V199H421.266V193.43C421.266 192.956 421.19 192.589 421.039 192.328C420.893 192.062 420.685 191.878 420.414 191.773C420.148 191.664 419.831 191.609 419.461 191.609C419.143 191.609 418.862 191.664 418.617 191.773C418.372 191.883 418.167 192.034 418 192.227C417.833 192.414 417.706 192.63 417.617 192.875C417.534 193.12 417.492 193.38 417.492 193.656ZM429.891 197.555V193.203C429.891 192.87 429.823 192.581 429.688 192.336C429.557 192.086 429.359 191.893 429.094 191.758C428.828 191.622 428.5 191.555 428.109 191.555C427.745 191.555 427.424 191.617 427.148 191.742C426.878 191.867 426.664 192.031 426.508 192.234C426.357 192.438 426.281 192.656 426.281 192.891H424.836C424.836 192.589 424.914 192.289 425.07 191.992C425.227 191.695 425.451 191.427 425.742 191.188C426.039 190.943 426.393 190.75 426.805 190.609C427.221 190.464 427.685 190.391 428.195 190.391C428.81 190.391 429.352 190.495 429.82 190.703C430.294 190.911 430.664 191.227 430.93 191.648C431.201 192.065 431.336 192.589 431.336 193.219V197.156C431.336 197.438 431.359 197.737 431.406 198.055C431.458 198.372 431.534 198.646 431.633 198.875V199H430.125C430.052 198.833 429.995 198.612 429.953 198.336C429.911 198.055 429.891 197.794 429.891 197.555ZM430.141 193.875L430.156 194.891H428.695C428.284 194.891 427.917 194.924 427.594 194.992C427.271 195.055 427 195.151 426.781 195.281C426.562 195.411 426.396 195.576 426.281 195.773C426.167 195.966 426.109 196.193 426.109 196.453C426.109 196.719 426.169 196.961 426.289 197.18C426.409 197.398 426.589 197.573 426.828 197.703C427.073 197.828 427.372 197.891 427.727 197.891C428.169 197.891 428.56 197.797 428.898 197.609C429.237 197.422 429.505 197.193 429.703 196.922C429.906 196.651 430.016 196.388 430.031 196.133L430.648 196.828C430.612 197.047 430.513 197.289 430.352 197.555C430.19 197.82 429.974 198.076 429.703 198.32C429.438 198.56 429.12 198.76 428.75 198.922C428.385 199.078 427.974 199.156 427.516 199.156C426.943 199.156 426.44 199.044 426.008 198.82C425.581 198.596 425.247 198.297 425.008 197.922C424.773 197.542 424.656 197.117 424.656 196.648C424.656 196.195 424.745 195.797 424.922 195.453C425.099 195.104 425.354 194.815 425.688 194.586C426.021 194.352 426.422 194.174 426.891 194.055C427.359 193.935 427.883 193.875 428.461 193.875H430.141ZM435.18 187V199H433.727V187H435.18Z" fill="#DE1306"/>
<path d="M353 163H470V161H353V163ZM477 170V217H479V170H477ZM470 224H353V226H470V224ZM346 217V170H344V217H346ZM353 224C349.134 224 346 220.866 346 217H344C344 221.971 348.029 226 353 226V224ZM477 217C477 220.866 473.866 224 470 224V226C474.971 226 479 221.971 479 217H477ZM470 163C473.866 163 477 166.134 477 170H479C479 165.029 474.971 161 470 161V163ZM353 161C348.029 161 344 165.029 344 170H346C346 166.134 349.134 163 353 163V161Z" fill="#DE1306"/>
</g>
<g filter="url(#filter1_d_5_45)">
<path d="M125 311C125 306.582 128.582 303 133 303H234C238.418 303 242 306.582 242 311V358C242 362.418 238.418 366 234 366H133C128.582 366 125 362.418 125 358V311Z" fill="#E7F4FF"/>
<path d="M179.508 336.383H181.008C180.93 337.102 180.724 337.745 180.391 338.312C180.057 338.88 179.586 339.331 178.977 339.664C178.367 339.992 177.607 340.156 176.695 340.156C176.029 340.156 175.422 340.031 174.875 339.781C174.333 339.531 173.867 339.177 173.477 338.719C173.086 338.255 172.784 337.701 172.57 337.055C172.362 336.404 172.258 335.68 172.258 334.883V333.75C172.258 332.953 172.362 332.232 172.57 331.586C172.784 330.935 173.089 330.378 173.484 329.914C173.885 329.451 174.367 329.094 174.93 328.844C175.492 328.594 176.125 328.469 176.828 328.469C177.688 328.469 178.414 328.63 179.008 328.953C179.602 329.276 180.062 329.724 180.391 330.297C180.724 330.865 180.93 331.523 181.008 332.273H179.508C179.435 331.742 179.299 331.286 179.102 330.906C178.904 330.521 178.622 330.224 178.258 330.016C177.893 329.807 177.417 329.703 176.828 329.703C176.323 329.703 175.878 329.799 175.492 329.992C175.112 330.185 174.792 330.458 174.531 330.812C174.276 331.167 174.083 331.591 173.953 332.086C173.823 332.581 173.758 333.13 173.758 333.734V334.883C173.758 335.44 173.815 335.964 173.93 336.453C174.049 336.943 174.229 337.372 174.469 337.742C174.708 338.112 175.013 338.404 175.383 338.617C175.753 338.826 176.19 338.93 176.695 338.93C177.336 338.93 177.846 338.828 178.227 338.625C178.607 338.422 178.893 338.13 179.086 337.75C179.284 337.37 179.424 336.914 179.508 336.383ZM187.828 338.555V334.203C187.828 333.87 187.76 333.581 187.625 333.336C187.495 333.086 187.297 332.893 187.031 332.758C186.766 332.622 186.438 332.555 186.047 332.555C185.682 332.555 185.362 332.617 185.086 332.742C184.815 332.867 184.602 333.031 184.445 333.234C184.294 333.438 184.219 333.656 184.219 333.891H182.773C182.773 333.589 182.852 333.289 183.008 332.992C183.164 332.695 183.388 332.427 183.68 332.188C183.977 331.943 184.331 331.75 184.742 331.609C185.159 331.464 185.622 331.391 186.133 331.391C186.747 331.391 187.289 331.495 187.758 331.703C188.232 331.911 188.602 332.227 188.867 332.648C189.138 333.065 189.273 333.589 189.273 334.219V338.156C189.273 338.438 189.297 338.737 189.344 339.055C189.396 339.372 189.471 339.646 189.57 339.875V340H188.062C187.99 339.833 187.932 339.612 187.891 339.336C187.849 339.055 187.828 338.794 187.828 338.555ZM188.078 334.875L188.094 335.891H186.633C186.221 335.891 185.854 335.924 185.531 335.992C185.208 336.055 184.938 336.151 184.719 336.281C184.5 336.411 184.333 336.576 184.219 336.773C184.104 336.966 184.047 337.193 184.047 337.453C184.047 337.719 184.107 337.961 184.227 338.18C184.346 338.398 184.526 338.573 184.766 338.703C185.01 338.828 185.31 338.891 185.664 338.891C186.107 338.891 186.497 338.797 186.836 338.609C187.174 338.422 187.443 338.193 187.641 337.922C187.844 337.651 187.953 337.388 187.969 337.133L188.586 337.828C188.549 338.047 188.451 338.289 188.289 338.555C188.128 338.82 187.911 339.076 187.641 339.32C187.375 339.56 187.057 339.76 186.688 339.922C186.323 340.078 185.911 340.156 185.453 340.156C184.88 340.156 184.378 340.044 183.945 339.82C183.518 339.596 183.185 339.297 182.945 338.922C182.711 338.542 182.594 338.117 182.594 337.648C182.594 337.195 182.682 336.797 182.859 336.453C183.036 336.104 183.292 335.815 183.625 335.586C183.958 335.352 184.359 335.174 184.828 335.055C185.297 334.935 185.82 334.875 186.398 334.875H188.078ZM195.086 331.547V332.656H190.516V331.547H195.086ZM192.062 329.492H193.508V337.906C193.508 338.193 193.552 338.409 193.641 338.555C193.729 338.701 193.844 338.797 193.984 338.844C194.125 338.891 194.276 338.914 194.438 338.914C194.557 338.914 194.682 338.904 194.812 338.883C194.948 338.857 195.049 338.836 195.117 338.82L195.125 340C195.01 340.036 194.859 340.07 194.672 340.102C194.49 340.138 194.268 340.156 194.008 340.156C193.654 340.156 193.328 340.086 193.031 339.945C192.734 339.805 192.497 339.57 192.32 339.242C192.148 338.909 192.062 338.461 192.062 337.898V329.492Z" fill="#2097F6"/>
<path d="M133 304H234V302H133V304ZM241 311V358H243V311H241ZM234 365H133V367H234V365ZM126 358V311H124V358H126ZM133 365C129.134 365 126 361.866 126 358H124C124 362.971 128.029 367 133 367V365ZM241 358C241 361.866 237.866 365 234 365V367C238.971 367 243 362.971 243 358H241ZM234 304C237.866 304 241 307.134 241 311H243C243 306.029 238.971 302 234 302V304ZM133 302C128.029 302 124 306.029 124 311H126C126 307.134 129.134 304 133 304V302Z" fill="#2097F6"/>
</g>
<g filter="url(#filter2_d_5_45)">
<path d="M580 311C580 306.582 583.582 303 588 303H693C697.418 303 701 306.582 701 311V358C701 362.418 697.418 366 693 366H588C583.582 366 580 362.418 580 358V311Z" fill="#E7F4FF"/>
<path d="M630.594 340H628.219L628.234 338.773H630.594C631.406 338.773 632.083 338.604 632.625 338.266C633.167 337.922 633.573 337.443 633.844 336.828C634.12 336.208 634.258 335.484 634.258 334.656V333.961C634.258 333.31 634.18 332.732 634.023 332.227C633.867 331.716 633.638 331.286 633.336 330.938C633.034 330.583 632.664 330.315 632.227 330.133C631.794 329.951 631.297 329.859 630.734 329.859H628.172V328.625H630.734C631.479 328.625 632.159 328.75 632.773 329C633.388 329.245 633.917 329.602 634.359 330.07C634.807 330.534 635.151 331.096 635.391 331.758C635.63 332.414 635.75 333.154 635.75 333.977V334.656C635.75 335.479 635.63 336.221 635.391 336.883C635.151 337.539 634.805 338.099 634.352 338.562C633.904 339.026 633.362 339.383 632.727 339.633C632.096 339.878 631.385 340 630.594 340ZM629.023 328.625V340H627.516V328.625H629.023ZM637.414 335.867V335.688C637.414 335.078 637.503 334.513 637.68 333.992C637.857 333.466 638.112 333.01 638.445 332.625C638.779 332.234 639.182 331.932 639.656 331.719C640.13 331.5 640.661 331.391 641.25 331.391C641.844 331.391 642.378 331.5 642.852 331.719C643.331 331.932 643.737 332.234 644.07 332.625C644.409 333.01 644.667 333.466 644.844 333.992C645.021 334.513 645.109 335.078 645.109 335.688V335.867C645.109 336.477 645.021 337.042 644.844 337.562C644.667 338.083 644.409 338.539 644.07 338.93C643.737 339.315 643.333 339.617 642.859 339.836C642.391 340.049 641.859 340.156 641.266 340.156C640.672 340.156 640.138 340.049 639.664 339.836C639.19 339.617 638.784 339.315 638.445 338.93C638.112 338.539 637.857 338.083 637.68 337.562C637.503 337.042 637.414 336.477 637.414 335.867ZM638.859 335.688V335.867C638.859 336.289 638.909 336.688 639.008 337.062C639.107 337.432 639.255 337.76 639.453 338.047C639.656 338.333 639.909 338.56 640.211 338.727C640.513 338.888 640.865 338.969 641.266 338.969C641.661 338.969 642.008 338.888 642.305 338.727C642.607 338.56 642.857 338.333 643.055 338.047C643.253 337.76 643.401 337.432 643.5 337.062C643.604 336.688 643.656 336.289 643.656 335.867V335.688C643.656 335.271 643.604 334.878 643.5 334.508C643.401 334.133 643.25 333.802 643.047 333.516C642.849 333.224 642.599 332.995 642.297 332.828C642 332.661 641.651 332.578 641.25 332.578C640.854 332.578 640.505 332.661 640.203 332.828C639.906 332.995 639.656 333.224 639.453 333.516C639.255 333.802 639.107 334.133 639.008 334.508C638.909 334.878 638.859 335.271 638.859 335.688ZM652.398 331.547H653.711V339.82C653.711 340.565 653.56 341.201 653.258 341.727C652.956 342.253 652.534 342.651 651.992 342.922C651.456 343.198 650.836 343.336 650.133 343.336C649.841 343.336 649.497 343.289 649.102 343.195C648.711 343.107 648.326 342.953 647.945 342.734C647.57 342.521 647.255 342.232 647 341.867L647.758 341.008C648.112 341.435 648.482 341.732 648.867 341.898C649.258 342.065 649.643 342.148 650.023 342.148C650.482 342.148 650.878 342.062 651.211 341.891C651.544 341.719 651.802 341.464 651.984 341.125C652.172 340.792 652.266 340.38 652.266 339.891V333.406L652.398 331.547ZM646.578 335.867V335.703C646.578 335.057 646.654 334.471 646.805 333.945C646.961 333.414 647.182 332.958 647.469 332.578C647.76 332.198 648.112 331.906 648.523 331.703C648.935 331.495 649.398 331.391 649.914 331.391C650.445 331.391 650.909 331.484 651.305 331.672C651.706 331.854 652.044 332.122 652.32 332.477C652.602 332.826 652.823 333.247 652.984 333.742C653.146 334.237 653.258 334.797 653.32 335.422V336.141C653.263 336.76 653.151 337.318 652.984 337.812C652.823 338.307 652.602 338.729 652.32 339.078C652.044 339.427 651.706 339.695 651.305 339.883C650.904 340.065 650.435 340.156 649.898 340.156C649.393 340.156 648.935 340.049 648.523 339.836C648.117 339.622 647.768 339.323 647.477 338.938C647.185 338.552 646.961 338.099 646.805 337.578C646.654 337.052 646.578 336.482 646.578 335.867ZM648.023 335.703V335.867C648.023 336.289 648.065 336.685 648.148 337.055C648.237 337.424 648.37 337.75 648.547 338.031C648.729 338.312 648.961 338.534 649.242 338.695C649.523 338.852 649.859 338.93 650.25 338.93C650.729 338.93 651.125 338.828 651.438 338.625C651.75 338.422 651.997 338.154 652.18 337.82C652.367 337.487 652.513 337.125 652.617 336.734V334.852C652.56 334.565 652.471 334.289 652.352 334.023C652.237 333.753 652.086 333.513 651.898 333.305C651.716 333.091 651.49 332.922 651.219 332.797C650.948 332.672 650.63 332.609 650.266 332.609C649.87 332.609 649.529 332.693 649.242 332.859C648.961 333.021 648.729 333.245 648.547 333.531C648.37 333.812 648.237 334.141 648.148 334.516C648.065 334.885 648.023 335.281 648.023 335.703Z" fill="#2097F6"/>
<path d="M588 304H693V302H588V304ZM700 311V358H702V311H700ZM693 365H588V367H693V365ZM581 358V311H579V358H581ZM588 365C584.134 365 581 361.866 581 358H579C579 362.971 583.029 367 588 367V365ZM700 358C700 361.866 696.866 365 693 365V367C697.971 367 702 362.971 702 358H700ZM693 304C696.866 304 700 307.134 700 311H702C702 306.029 697.971 302 693 302V304ZM588 302C583.029 302 579 306.029 579 311H581C581 307.134 584.134 304 588 304V302Z" fill="#2097F6"/>
</g>
<path d="M320 194L223 194C200.909 194 183 211.909 183 234L183 284.5" stroke="#DE1306" stroke-width="2"/>
<path d="M183.762 285.66L191.008 277.672C191.591 277.029 191.135 276 190.268 276L176.174 276C175.32 276 174.859 277.002 175.415 277.651L182.262 285.639C182.654 286.096 183.358 286.106 183.762 285.66Z" fill="#DE1306"/>
<circle cx="324.5" cy="193.5" r="5.5" transform="rotate(90 324.5 193.5)" fill="#DE1306"/>
<path d="M503 194L600 194C622.091 194 640 211.909 640 234L640 284.5" stroke="#DE1306" stroke-width="2"/>
<path d="M639.238 285.66L631.992 277.672C631.409 277.029 631.865 276 632.732 276L646.826 276C647.68 276 648.141 277.002 647.585 277.651L640.738 285.639C640.346 286.096 639.642 286.106 639.238 285.66Z" fill="#DE1306"/>
<circle r="5.5" transform="matrix(1.39071e-07 1 1 -1.39071e-07 498.5 193.5)" fill="#DE1306"/>
<g filter="url(#filter3_d_5_45)">
<path d="M1302 170C1302 165.582 1305.58 162 1310 162H1427C1431.42 162 1435 165.582 1435 170V217C1435 221.418 1431.42 225 1427 225H1310C1305.58 225 1302 221.418 1302 217V170Z" fill="#FEEBEA"/>
<path d="M1353.35 187.625V199H1351.84V187.625H1353.35ZM1358.12 192.742V193.977H1353.02V192.742H1358.12ZM1358.89 187.625V188.859H1353.02V187.625H1358.89ZM1359.91 194.867V194.688C1359.91 194.078 1360 193.513 1360.18 192.992C1360.36 192.466 1360.61 192.01 1360.95 191.625C1361.28 191.234 1361.68 190.932 1362.16 190.719C1362.63 190.5 1363.16 190.391 1363.75 190.391C1364.34 190.391 1364.88 190.5 1365.35 190.719C1365.83 190.932 1366.24 191.234 1366.57 191.625C1366.91 192.01 1367.17 192.466 1367.34 192.992C1367.52 193.513 1367.61 194.078 1367.61 194.688V194.867C1367.61 195.477 1367.52 196.042 1367.34 196.562C1367.17 197.083 1366.91 197.539 1366.57 197.93C1366.24 198.315 1365.83 198.617 1365.36 198.836C1364.89 199.049 1364.36 199.156 1363.77 199.156C1363.17 199.156 1362.64 199.049 1362.16 198.836C1361.69 198.617 1361.28 198.315 1360.95 197.93C1360.61 197.539 1360.36 197.083 1360.18 196.562C1360 196.042 1359.91 195.477 1359.91 194.867ZM1361.36 194.688V194.867C1361.36 195.289 1361.41 195.688 1361.51 196.062C1361.61 196.432 1361.76 196.76 1361.95 197.047C1362.16 197.333 1362.41 197.56 1362.71 197.727C1363.01 197.888 1363.36 197.969 1363.77 197.969C1364.16 197.969 1364.51 197.888 1364.8 197.727C1365.11 197.56 1365.36 197.333 1365.55 197.047C1365.75 196.76 1365.9 196.432 1366 196.062C1366.1 195.688 1366.16 195.289 1366.16 194.867V194.688C1366.16 194.271 1366.1 193.878 1366 193.508C1365.9 193.133 1365.75 192.802 1365.55 192.516C1365.35 192.224 1365.1 191.995 1364.8 191.828C1364.5 191.661 1364.15 191.578 1363.75 191.578C1363.35 191.578 1363.01 191.661 1362.7 191.828C1362.41 191.995 1362.16 192.224 1361.95 192.516C1361.76 192.802 1361.61 193.133 1361.51 193.508C1361.41 193.878 1361.36 194.271 1361.36 194.688ZM1369.04 194.867V194.688C1369.04 194.078 1369.13 193.513 1369.3 192.992C1369.48 192.466 1369.74 192.01 1370.07 191.625C1370.4 191.234 1370.81 190.932 1371.28 190.719C1371.76 190.5 1372.29 190.391 1372.88 190.391C1373.47 190.391 1374 190.5 1374.48 190.719C1374.96 190.932 1375.36 191.234 1375.7 191.625C1376.03 192.01 1376.29 192.466 1376.47 192.992C1376.65 193.513 1376.73 194.078 1376.73 194.688V194.867C1376.73 195.477 1376.65 196.042 1376.47 196.562C1376.29 197.083 1376.03 197.539 1375.7 197.93C1375.36 198.315 1374.96 198.617 1374.48 198.836C1374.02 199.049 1373.48 199.156 1372.89 199.156C1372.3 199.156 1371.76 199.049 1371.29 198.836C1370.82 198.617 1370.41 198.315 1370.07 197.93C1369.74 197.539 1369.48 197.083 1369.3 196.562C1369.13 196.042 1369.04 195.477 1369.04 194.867ZM1370.48 194.688V194.867C1370.48 195.289 1370.53 195.688 1370.63 196.062C1370.73 196.432 1370.88 196.76 1371.08 197.047C1371.28 197.333 1371.53 197.56 1371.84 197.727C1372.14 197.888 1372.49 197.969 1372.89 197.969C1373.29 197.969 1373.63 197.888 1373.93 197.727C1374.23 197.56 1374.48 197.333 1374.68 197.047C1374.88 196.76 1375.03 196.432 1375.12 196.062C1375.23 195.688 1375.28 195.289 1375.28 194.867V194.688C1375.28 194.271 1375.23 193.878 1375.12 193.508C1375.03 193.133 1374.88 192.802 1374.67 192.516C1374.47 192.224 1374.22 191.995 1373.92 191.828C1373.62 191.661 1373.28 191.578 1372.88 191.578C1372.48 191.578 1372.13 191.661 1371.83 191.828C1371.53 191.995 1371.28 192.224 1371.08 192.516C1370.88 192.802 1370.73 193.133 1370.63 193.508C1370.53 193.878 1370.48 194.271 1370.48 194.688ZM1383.88 197.359V187H1385.33V199H1384L1383.88 197.359ZM1378.19 194.867V194.703C1378.19 194.057 1378.27 193.471 1378.42 192.945C1378.58 192.414 1378.81 191.958 1379.1 191.578C1379.4 191.198 1379.75 190.906 1380.16 190.703C1380.57 190.495 1381.03 190.391 1381.53 190.391C1382.06 190.391 1382.53 190.484 1382.92 190.672C1383.32 190.854 1383.66 191.122 1383.94 191.477C1384.22 191.826 1384.44 192.247 1384.6 192.742C1384.76 193.237 1384.88 193.797 1384.94 194.422V195.141C1384.88 195.76 1384.77 196.318 1384.6 196.812C1384.44 197.307 1384.22 197.729 1383.94 198.078C1383.66 198.427 1383.32 198.695 1382.92 198.883C1382.52 199.065 1382.05 199.156 1381.52 199.156C1381.02 199.156 1380.57 199.049 1380.16 198.836C1379.75 198.622 1379.4 198.323 1379.1 197.938C1378.81 197.552 1378.58 197.099 1378.42 196.578C1378.27 196.052 1378.19 195.482 1378.19 194.867ZM1379.64 194.703V194.867C1379.64 195.289 1379.68 195.685 1379.77 196.055C1379.85 196.424 1379.99 196.75 1380.17 197.031C1380.35 197.312 1380.59 197.534 1380.87 197.695C1381.15 197.852 1381.48 197.93 1381.88 197.93C1382.35 197.93 1382.75 197.828 1383.05 197.625C1383.37 197.422 1383.62 197.154 1383.8 196.82C1383.99 196.487 1384.14 196.125 1384.24 195.734V193.852C1384.18 193.565 1384.09 193.289 1383.97 193.023C1383.85 192.753 1383.7 192.513 1383.52 192.305C1383.33 192.091 1383.11 191.922 1382.84 191.797C1382.57 191.672 1382.26 191.609 1381.89 191.609C1381.49 191.609 1381.15 191.693 1380.87 191.859C1380.59 192.021 1380.35 192.245 1380.17 192.531C1379.99 192.812 1379.85 193.141 1379.77 193.516C1379.68 193.885 1379.64 194.281 1379.64 194.703Z" fill="#DE1306"/>
<path d="M1310 163H1427V161H1310V163ZM1434 170V217H1436V170H1434ZM1427 224H1310V226H1427V224ZM1303 217V170H1301V217H1303ZM1310 224C1306.13 224 1303 220.866 1303 217H1301C1301 221.971 1305.03 226 1310 226V224ZM1434 217C1434 220.866 1430.87 224 1427 224V226C1431.97 226 1436 221.971 1436 217H1434ZM1427 163C1430.87 163 1434 166.134 1434 170H1436C1436 165.029 1431.97 161 1427 161V163ZM1310 161C1305.03 161 1301 165.029 1301 170H1303C1303 166.134 1306.13 163 1310 163V161Z" fill="#DE1306"/>
</g>
<g filter="url(#filter4_d_5_45)">
<path d="M1056 311C1056 306.582 1059.58 303 1064 303H1219C1223.42 303 1227 306.582 1227 311V358C1227 362.418 1223.42 366 1219 366H1064C1059.58 366 1056 362.418 1056 358V311Z" fill="#E7F4FF"/>
<path d="M1108.52 336.68V328.625H1110.02V336.68C1110.02 337.43 1109.87 338.062 1109.56 338.578C1109.26 339.094 1108.83 339.487 1108.29 339.758C1107.75 340.023 1107.14 340.156 1106.44 340.156C1105.74 340.156 1105.12 340.036 1104.58 339.797C1104.04 339.557 1103.61 339.193 1103.3 338.703C1103 338.214 1102.84 337.596 1102.84 336.852H1104.35C1104.35 337.331 1104.44 337.724 1104.62 338.031C1104.79 338.339 1105.04 338.565 1105.35 338.711C1105.67 338.857 1106.03 338.93 1106.44 338.93C1106.83 338.93 1107.19 338.846 1107.5 338.68C1107.82 338.508 1108.07 338.255 1108.25 337.922C1108.43 337.583 1108.52 337.169 1108.52 336.68ZM1117.53 338.047V331.547H1118.98V340H1117.6L1117.53 338.047ZM1117.8 336.266L1118.41 336.25C1118.41 336.812 1118.35 337.333 1118.23 337.812C1118.11 338.286 1117.92 338.698 1117.66 339.047C1117.4 339.396 1117.06 339.669 1116.64 339.867C1116.22 340.06 1115.71 340.156 1115.1 340.156C1114.69 340.156 1114.31 340.096 1113.97 339.977C1113.63 339.857 1113.34 339.672 1113.09 339.422C1112.85 339.172 1112.66 338.846 1112.52 338.445C1112.39 338.044 1112.33 337.562 1112.33 337V331.547H1113.77V337.016C1113.77 337.396 1113.82 337.711 1113.9 337.961C1113.99 338.206 1114.1 338.401 1114.25 338.547C1114.4 338.688 1114.57 338.786 1114.75 338.844C1114.94 338.901 1115.13 338.93 1115.33 338.93C1115.94 338.93 1116.43 338.812 1116.79 338.578C1117.15 338.339 1117.41 338.018 1117.56 337.617C1117.72 337.211 1117.8 336.76 1117.8 336.266ZM1122.63 333.352V340H1121.19V331.547H1122.55L1122.63 333.352ZM1122.29 335.453L1121.69 335.43C1121.69 334.852 1121.78 334.318 1121.95 333.828C1122.11 333.333 1122.35 332.904 1122.65 332.539C1122.95 332.174 1123.31 331.893 1123.73 331.695C1124.15 331.492 1124.61 331.391 1125.12 331.391C1125.54 331.391 1125.92 331.448 1126.25 331.562C1126.58 331.672 1126.87 331.849 1127.1 332.094C1127.34 332.339 1127.52 332.656 1127.65 333.047C1127.77 333.432 1127.84 333.904 1127.84 334.461V340H1126.38V334.445C1126.38 334.003 1126.32 333.648 1126.19 333.383C1126.06 333.112 1125.87 332.917 1125.62 332.797C1125.37 332.672 1125.06 332.609 1124.7 332.609C1124.34 332.609 1124.01 332.685 1123.71 332.836C1123.42 332.987 1123.17 333.195 1122.95 333.461C1122.74 333.727 1122.58 334.031 1122.46 334.375C1122.35 334.714 1122.29 335.073 1122.29 335.453ZM1131.48 328V340H1130.03V328H1131.48ZM1136.65 331.547L1132.96 335.492L1130.9 337.633L1130.78 336.094L1132.26 334.328L1134.88 331.547H1136.65ZM1135.33 340L1132.31 335.969L1133.06 334.68L1137.03 340H1135.33ZM1140.52 339.125L1142.87 331.547H1144.41L1141.02 341.305C1140.95 341.513 1140.84 341.737 1140.71 341.977C1140.59 342.221 1140.42 342.453 1140.23 342.672C1140.03 342.891 1139.79 343.068 1139.51 343.203C1139.23 343.344 1138.9 343.414 1138.52 343.414C1138.4 343.414 1138.26 343.398 1138.08 343.367C1137.9 343.336 1137.78 343.31 1137.7 343.289L1137.7 342.117C1137.74 342.122 1137.8 342.128 1137.89 342.133C1137.98 342.143 1138.05 342.148 1138.09 342.148C1138.41 342.148 1138.69 342.104 1138.92 342.016C1139.15 341.932 1139.34 341.789 1139.5 341.586C1139.66 341.388 1139.8 341.115 1139.91 340.766L1140.52 339.125ZM1138.79 331.547L1140.98 338.109L1141.36 339.633L1140.32 340.164L1137.21 331.547H1138.79ZM1147.45 328.625V340H1145.94V328.625H1147.45ZM1152.21 333.742V334.977H1147.12V333.742H1152.21ZM1152.98 328.625V329.859H1147.12V328.625H1152.98ZM1154.01 335.867V335.688C1154.01 335.078 1154.1 334.513 1154.27 333.992C1154.45 333.466 1154.71 333.01 1155.04 332.625C1155.37 332.234 1155.78 331.932 1156.25 331.719C1156.72 331.5 1157.26 331.391 1157.84 331.391C1158.44 331.391 1158.97 331.5 1159.45 331.719C1159.92 331.932 1160.33 332.234 1160.66 332.625C1161 333.01 1161.26 333.466 1161.44 333.992C1161.61 334.513 1161.7 335.078 1161.7 335.688V335.867C1161.7 336.477 1161.61 337.042 1161.44 337.562C1161.26 338.083 1161 338.539 1160.66 338.93C1160.33 339.315 1159.93 339.617 1159.45 339.836C1158.98 340.049 1158.45 340.156 1157.86 340.156C1157.27 340.156 1156.73 340.049 1156.26 339.836C1155.78 339.617 1155.38 339.315 1155.04 338.93C1154.71 338.539 1154.45 338.083 1154.27 337.562C1154.1 337.042 1154.01 336.477 1154.01 335.867ZM1155.45 335.688V335.867C1155.45 336.289 1155.5 336.688 1155.6 337.062C1155.7 337.432 1155.85 337.76 1156.05 338.047C1156.25 338.333 1156.5 338.56 1156.8 338.727C1157.11 338.888 1157.46 338.969 1157.86 338.969C1158.26 338.969 1158.6 338.888 1158.9 338.727C1159.2 338.56 1159.45 338.333 1159.65 338.047C1159.85 337.76 1159.99 337.432 1160.09 337.062C1160.2 336.688 1160.25 336.289 1160.25 335.867V335.688C1160.25 335.271 1160.2 334.878 1160.09 334.508C1159.99 334.133 1159.84 333.802 1159.64 333.516C1159.44 333.224 1159.19 332.995 1158.89 332.828C1158.59 332.661 1158.24 332.578 1157.84 332.578C1157.45 332.578 1157.1 332.661 1156.8 332.828C1156.5 332.995 1156.25 333.224 1156.05 333.516C1155.85 333.802 1155.7 334.133 1155.6 334.508C1155.5 334.878 1155.45 335.271 1155.45 335.688ZM1163.13 335.867V335.688C1163.13 335.078 1163.22 334.513 1163.4 333.992C1163.58 333.466 1163.83 333.01 1164.16 332.625C1164.5 332.234 1164.9 331.932 1165.38 331.719C1165.85 331.5 1166.38 331.391 1166.97 331.391C1167.56 331.391 1168.1 331.5 1168.57 331.719C1169.05 331.932 1169.46 332.234 1169.79 332.625C1170.13 333.01 1170.39 333.466 1170.56 333.992C1170.74 334.513 1170.83 335.078 1170.83 335.688V335.867C1170.83 336.477 1170.74 337.042 1170.56 337.562C1170.39 338.083 1170.13 338.539 1169.79 338.93C1169.46 339.315 1169.05 339.617 1168.58 339.836C1168.11 340.049 1167.58 340.156 1166.98 340.156C1166.39 340.156 1165.86 340.049 1165.38 339.836C1164.91 339.617 1164.5 339.315 1164.16 338.93C1163.83 338.539 1163.58 338.083 1163.4 337.562C1163.22 337.042 1163.13 336.477 1163.13 335.867ZM1164.58 335.688V335.867C1164.58 336.289 1164.63 336.688 1164.73 337.062C1164.83 337.432 1164.97 337.76 1165.17 338.047C1165.38 338.333 1165.63 338.56 1165.93 338.727C1166.23 338.888 1166.58 338.969 1166.98 338.969C1167.38 338.969 1167.73 338.888 1168.02 338.727C1168.33 338.56 1168.58 338.333 1168.77 338.047C1168.97 337.76 1169.12 337.432 1169.22 337.062C1169.32 336.688 1169.38 336.289 1169.38 335.867V335.688C1169.38 335.271 1169.32 334.878 1169.22 334.508C1169.12 334.133 1168.97 333.802 1168.77 333.516C1168.57 333.224 1168.32 332.995 1168.02 332.828C1167.72 332.661 1167.37 332.578 1166.97 332.578C1166.57 332.578 1166.22 332.661 1165.92 332.828C1165.62 332.995 1165.38 333.224 1165.17 333.516C1164.97 333.802 1164.83 334.133 1164.73 334.508C1164.63 334.878 1164.58 335.271 1164.58 335.688ZM1177.97 338.359V328H1179.42V340H1178.09L1177.97 338.359ZM1172.28 335.867V335.703C1172.28 335.057 1172.36 334.471 1172.52 333.945C1172.68 333.414 1172.9 332.958 1173.2 332.578C1173.49 332.198 1173.84 331.906 1174.25 331.703C1174.66 331.495 1175.12 331.391 1175.62 331.391C1176.16 331.391 1176.62 331.484 1177.02 331.672C1177.42 331.854 1177.76 332.122 1178.03 332.477C1178.31 332.826 1178.53 333.247 1178.7 333.742C1178.86 334.237 1178.97 334.797 1179.03 335.422V336.141C1178.97 336.76 1178.86 337.318 1178.7 337.812C1178.53 338.307 1178.31 338.729 1178.03 339.078C1177.76 339.427 1177.42 339.695 1177.02 339.883C1176.61 340.065 1176.15 340.156 1175.61 340.156C1175.11 340.156 1174.66 340.049 1174.25 339.836C1173.84 339.622 1173.49 339.323 1173.2 338.938C1172.9 338.552 1172.68 338.099 1172.52 337.578C1172.36 337.052 1172.28 336.482 1172.28 335.867ZM1173.73 335.703V335.867C1173.73 336.289 1173.78 336.685 1173.86 337.055C1173.95 337.424 1174.08 337.75 1174.27 338.031C1174.45 338.312 1174.68 338.534 1174.96 338.695C1175.24 338.852 1175.58 338.93 1175.97 338.93C1176.45 338.93 1176.84 338.828 1177.15 338.625C1177.46 338.422 1177.71 338.154 1177.9 337.82C1178.09 337.487 1178.23 337.125 1178.34 336.734V334.852C1178.27 334.565 1178.18 334.289 1178.06 334.023C1177.95 333.753 1177.8 333.513 1177.61 333.305C1177.43 333.091 1177.2 332.922 1176.93 332.797C1176.66 332.672 1176.35 332.609 1175.98 332.609C1175.59 332.609 1175.25 332.693 1174.96 332.859C1174.68 333.021 1174.45 333.245 1174.27 333.531C1174.08 333.812 1173.95 334.141 1173.86 334.516C1173.78 334.885 1173.73 335.281 1173.73 335.703Z" fill="#2097F6"/>
<path d="M1064 304H1219V302H1064V304ZM1226 311V358H1228V311H1226ZM1219 365H1064V367H1219V365ZM1057 358V311H1055V358H1057ZM1064 365C1060.13 365 1057 361.866 1057 358H1055C1055 362.971 1059.03 367 1064 367V365ZM1226 358C1226 361.866 1222.87 365 1219 365V367C1223.97 367 1228 362.971 1228 358H1226ZM1219 304C1222.87 304 1226 307.134 1226 311H1228C1228 306.029 1223.97 302 1219 302V304ZM1064 302C1059.03 302 1055 306.029 1055 311H1057C1057 307.134 1060.13 304 1064 304V302Z" fill="#2097F6"/>
</g>
<g filter="url(#filter5_d_5_45)">
<path d="M1510 311C1510 306.582 1513.58 303 1518 303H1685C1689.42 303 1693 306.582 1693 311V358C1693 362.418 1689.42 366 1685 366H1518C1513.58 366 1510 362.418 1510 358V311Z" fill="#E7F4FF"/>
<path d="M1565.21 333.516V334.742H1559.05V333.516H1565.21ZM1559.29 328.625V340H1557.78V328.625H1559.29ZM1566.52 328.625V340H1565.02V328.625H1566.52ZM1572.49 340.156C1571.9 340.156 1571.37 340.057 1570.89 339.859C1570.42 339.656 1570.01 339.372 1569.66 339.008C1569.33 338.643 1569.07 338.211 1568.88 337.711C1568.7 337.211 1568.61 336.664 1568.61 336.07V335.742C1568.61 335.055 1568.71 334.443 1568.91 333.906C1569.12 333.365 1569.39 332.906 1569.74 332.531C1570.09 332.156 1570.49 331.872 1570.93 331.68C1571.37 331.487 1571.83 331.391 1572.3 331.391C1572.91 331.391 1573.43 331.495 1573.87 331.703C1574.31 331.911 1574.67 332.203 1574.95 332.578C1575.23 332.948 1575.44 333.385 1575.58 333.891C1575.71 334.391 1575.78 334.938 1575.78 335.531V336.18H1569.47V335H1574.34V334.891C1574.32 334.516 1574.24 334.151 1574.1 333.797C1573.97 333.443 1573.76 333.151 1573.48 332.922C1573.19 332.693 1572.8 332.578 1572.3 332.578C1571.98 332.578 1571.67 332.648 1571.4 332.789C1571.12 332.924 1570.89 333.128 1570.69 333.398C1570.49 333.669 1570.34 334 1570.23 334.391C1570.12 334.781 1570.06 335.232 1570.06 335.742V336.07C1570.06 336.471 1570.12 336.849 1570.23 337.203C1570.34 337.552 1570.51 337.859 1570.72 338.125C1570.94 338.391 1571.2 338.599 1571.51 338.75C1571.82 338.901 1572.17 338.977 1572.57 338.977C1573.08 338.977 1573.51 338.872 1573.87 338.664C1574.22 338.456 1574.53 338.177 1574.8 337.828L1575.67 338.523C1575.49 338.799 1575.26 339.062 1574.98 339.312C1574.7 339.562 1574.35 339.766 1573.94 339.922C1573.53 340.078 1573.05 340.156 1572.49 340.156ZM1582.45 338.555V334.203C1582.45 333.87 1582.39 333.581 1582.25 333.336C1582.12 333.086 1581.92 332.893 1581.66 332.758C1581.39 332.622 1581.06 332.555 1580.67 332.555C1580.31 332.555 1579.99 332.617 1579.71 332.742C1579.44 332.867 1579.23 333.031 1579.07 333.234C1578.92 333.438 1578.84 333.656 1578.84 333.891H1577.4C1577.4 333.589 1577.48 333.289 1577.63 332.992C1577.79 332.695 1578.01 332.427 1578.3 332.188C1578.6 331.943 1578.96 331.75 1579.37 331.609C1579.78 331.464 1580.25 331.391 1580.76 331.391C1581.37 331.391 1581.91 331.495 1582.38 331.703C1582.86 331.911 1583.23 332.227 1583.49 332.648C1583.76 333.065 1583.9 333.589 1583.9 334.219V338.156C1583.9 338.438 1583.92 338.737 1583.97 339.055C1584.02 339.372 1584.1 339.646 1584.2 339.875V340H1582.69C1582.61 339.833 1582.56 339.612 1582.52 339.336C1582.47 339.055 1582.45 338.794 1582.45 338.555ZM1582.7 334.875L1582.72 335.891H1581.26C1580.85 335.891 1580.48 335.924 1580.16 335.992C1579.83 336.055 1579.56 336.151 1579.34 336.281C1579.12 336.411 1578.96 336.576 1578.84 336.773C1578.73 336.966 1578.67 337.193 1578.67 337.453C1578.67 337.719 1578.73 337.961 1578.85 338.18C1578.97 338.398 1579.15 338.573 1579.39 338.703C1579.64 338.828 1579.93 338.891 1580.29 338.891C1580.73 338.891 1581.12 338.797 1581.46 338.609C1581.8 338.422 1582.07 338.193 1582.27 337.922C1582.47 337.651 1582.58 337.388 1582.59 337.133L1583.21 337.828C1583.17 338.047 1583.08 338.289 1582.91 338.555C1582.75 338.82 1582.54 339.076 1582.27 339.32C1582 339.56 1581.68 339.76 1581.31 339.922C1580.95 340.078 1580.54 340.156 1580.08 340.156C1579.51 340.156 1579 340.044 1578.57 339.82C1578.14 339.596 1577.81 339.297 1577.57 338.922C1577.34 338.542 1577.22 338.117 1577.22 337.648C1577.22 337.195 1577.31 336.797 1577.48 336.453C1577.66 336.104 1577.92 335.815 1578.25 335.586C1578.58 335.352 1578.98 335.174 1579.45 335.055C1579.92 334.935 1580.45 334.875 1581.02 334.875H1582.7ZM1587.74 328V340H1586.29V328H1587.74ZM1593.6 331.547V332.656H1589.03V331.547H1593.6ZM1590.58 329.492H1592.02V337.906C1592.02 338.193 1592.07 338.409 1592.16 338.555C1592.24 338.701 1592.36 338.797 1592.5 338.844C1592.64 338.891 1592.79 338.914 1592.95 338.914C1593.07 338.914 1593.2 338.904 1593.33 338.883C1593.46 338.857 1593.57 338.836 1593.63 338.82L1593.64 340C1593.53 340.036 1593.38 340.07 1593.19 340.102C1593.01 340.138 1592.78 340.156 1592.52 340.156C1592.17 340.156 1591.84 340.086 1591.55 339.945C1591.25 339.805 1591.01 339.57 1590.84 339.242C1590.66 338.909 1590.58 338.461 1590.58 337.898V329.492ZM1596.74 328V340H1595.3V328H1596.74ZM1596.4 335.453L1595.8 335.43C1595.8 334.852 1595.89 334.318 1596.05 333.828C1596.22 333.333 1596.46 332.904 1596.76 332.539C1597.06 332.174 1597.42 331.893 1597.84 331.695C1598.26 331.492 1598.72 331.391 1599.23 331.391C1599.65 331.391 1600.03 331.448 1600.36 331.562C1600.69 331.672 1600.98 331.849 1601.21 332.094C1601.45 332.339 1601.63 332.656 1601.76 333.047C1601.88 333.432 1601.95 333.904 1601.95 334.461V340H1600.49V334.445C1600.49 334.003 1600.43 333.648 1600.3 333.383C1600.17 333.112 1599.98 332.917 1599.73 332.797C1599.48 332.672 1599.17 332.609 1598.8 332.609C1598.45 332.609 1598.12 332.685 1597.82 332.836C1597.53 332.987 1597.28 333.195 1597.06 333.461C1596.85 333.727 1596.69 334.031 1596.57 334.375C1596.46 334.714 1596.4 335.073 1596.4 335.453ZM1606.48 339.125L1608.84 331.547H1610.38L1606.99 341.305C1606.91 341.513 1606.81 341.737 1606.68 341.977C1606.55 342.221 1606.39 342.453 1606.2 342.672C1606 342.891 1605.76 343.068 1605.48 343.203C1605.2 343.344 1604.87 343.414 1604.48 343.414C1604.37 343.414 1604.22 343.398 1604.05 343.367C1603.87 343.336 1603.74 343.31 1603.67 343.289L1603.66 342.117C1603.71 342.122 1603.77 342.128 1603.86 342.133C1603.95 342.143 1604.02 342.148 1604.05 342.148C1604.38 342.148 1604.66 342.104 1604.89 342.016C1605.12 341.932 1605.31 341.789 1605.47 341.586C1605.63 341.388 1605.77 341.115 1605.88 340.766L1606.48 339.125ZM1604.76 331.547L1606.95 338.109L1607.33 339.633L1606.29 340.164L1603.18 331.547H1604.76ZM1613.41 328.625V340H1611.91V328.625H1613.41ZM1618.18 333.742V334.977H1613.09V333.742H1618.18ZM1618.95 328.625V329.859H1613.09V328.625H1618.95ZM1619.98 335.867V335.688C1619.98 335.078 1620.07 334.513 1620.24 333.992C1620.42 333.466 1620.67 333.01 1621.01 332.625C1621.34 332.234 1621.74 331.932 1622.22 331.719C1622.69 331.5 1623.22 331.391 1623.81 331.391C1624.41 331.391 1624.94 331.5 1625.41 331.719C1625.89 331.932 1626.3 332.234 1626.63 332.625C1626.97 333.01 1627.23 333.466 1627.41 333.992C1627.58 334.513 1627.67 335.078 1627.67 335.688V335.867C1627.67 336.477 1627.58 337.042 1627.41 337.562C1627.23 338.083 1626.97 338.539 1626.63 338.93C1626.3 339.315 1625.9 339.617 1625.42 339.836C1624.95 340.049 1624.42 340.156 1623.83 340.156C1623.23 340.156 1622.7 340.049 1622.23 339.836C1621.75 339.617 1621.35 339.315 1621.01 338.93C1620.67 338.539 1620.42 338.083 1620.24 337.562C1620.07 337.042 1619.98 336.477 1619.98 335.867ZM1621.42 335.688V335.867C1621.42 336.289 1621.47 336.688 1621.57 337.062C1621.67 337.432 1621.82 337.76 1622.02 338.047C1622.22 338.333 1622.47 338.56 1622.77 338.727C1623.08 338.888 1623.43 338.969 1623.83 338.969C1624.22 338.969 1624.57 338.888 1624.87 338.727C1625.17 338.56 1625.42 338.333 1625.62 338.047C1625.82 337.76 1625.96 337.432 1626.06 337.062C1626.17 336.688 1626.22 336.289 1626.22 335.867V335.688C1626.22 335.271 1626.17 334.878 1626.06 334.508C1625.96 334.133 1625.81 333.802 1625.61 333.516C1625.41 333.224 1625.16 332.995 1624.86 332.828C1624.56 332.661 1624.21 332.578 1623.81 332.578C1623.42 332.578 1623.07 332.661 1622.77 332.828C1622.47 332.995 1622.22 333.224 1622.02 333.516C1621.82 333.802 1621.67 334.133 1621.57 334.508C1621.47 334.878 1621.42 335.271 1621.42 335.688ZM1629.1 335.867V335.688C1629.1 335.078 1629.19 334.513 1629.37 333.992C1629.54 333.466 1629.8 333.01 1630.13 332.625C1630.47 332.234 1630.87 331.932 1631.34 331.719C1631.82 331.5 1632.35 331.391 1632.94 331.391C1633.53 331.391 1634.07 331.5 1634.54 331.719C1635.02 331.932 1635.42 332.234 1635.76 332.625C1636.1 333.01 1636.35 333.466 1636.53 333.992C1636.71 334.513 1636.8 335.078 1636.8 335.688V335.867C1636.8 336.477 1636.71 337.042 1636.53 337.562C1636.35 338.083 1636.1 338.539 1635.76 338.93C1635.42 339.315 1635.02 339.617 1634.55 339.836C1634.08 340.049 1633.55 340.156 1632.95 340.156C1632.36 340.156 1631.83 340.049 1631.35 339.836C1630.88 339.617 1630.47 339.315 1630.13 338.93C1629.8 338.539 1629.54 338.083 1629.37 337.562C1629.19 337.042 1629.1 336.477 1629.1 335.867ZM1630.55 335.688V335.867C1630.55 336.289 1630.6 336.688 1630.7 337.062C1630.79 337.432 1630.94 337.76 1631.14 338.047C1631.34 338.333 1631.6 338.56 1631.9 338.727C1632.2 338.888 1632.55 338.969 1632.95 338.969C1633.35 338.969 1633.7 338.888 1633.99 338.727C1634.29 338.56 1634.54 338.333 1634.74 338.047C1634.94 337.76 1635.09 337.432 1635.19 337.062C1635.29 336.688 1635.34 336.289 1635.34 335.867V335.688C1635.34 335.271 1635.29 334.878 1635.19 334.508C1635.09 334.133 1634.94 333.802 1634.73 333.516C1634.54 333.224 1634.29 332.995 1633.98 332.828C1633.69 332.661 1633.34 332.578 1632.94 332.578C1632.54 332.578 1632.19 332.661 1631.89 332.828C1631.59 332.995 1631.34 333.224 1631.14 333.516C1630.94 333.802 1630.79 334.133 1630.7 334.508C1630.6 334.878 1630.55 335.271 1630.55 335.688ZM1643.94 338.359V328H1645.39V340H1644.06L1643.94 338.359ZM1638.25 335.867V335.703C1638.25 335.057 1638.33 334.471 1638.48 333.945C1638.65 333.414 1638.87 332.958 1639.16 332.578C1639.46 332.198 1639.81 331.906 1640.22 331.703C1640.63 331.495 1641.09 331.391 1641.59 331.391C1642.12 331.391 1642.59 331.484 1642.98 331.672C1643.39 331.854 1643.72 332.122 1644 332.477C1644.28 332.826 1644.5 333.247 1644.66 333.742C1644.83 334.237 1644.94 334.797 1645 335.422V336.141C1644.94 336.76 1644.83 337.318 1644.66 337.812C1644.5 338.307 1644.28 338.729 1644 339.078C1643.72 339.427 1643.39 339.695 1642.98 339.883C1642.58 340.065 1642.11 340.156 1641.58 340.156C1641.08 340.156 1640.63 340.049 1640.22 339.836C1639.81 339.622 1639.46 339.323 1639.16 338.938C1638.87 338.552 1638.65 338.099 1638.48 337.578C1638.33 337.052 1638.25 336.482 1638.25 335.867ZM1639.7 335.703V335.867C1639.7 336.289 1639.74 336.685 1639.83 337.055C1639.92 337.424 1640.05 337.75 1640.23 338.031C1640.42 338.312 1640.65 338.534 1640.93 338.695C1641.21 338.852 1641.55 338.93 1641.94 338.93C1642.42 338.93 1642.81 338.828 1643.12 338.625C1643.43 338.422 1643.68 338.154 1643.87 337.82C1644.05 337.487 1644.2 337.125 1644.3 336.734V334.852C1644.24 334.565 1644.15 334.289 1644.03 334.023C1643.92 333.753 1643.77 333.513 1643.58 333.305C1643.4 333.091 1643.17 332.922 1642.9 332.797C1642.63 332.672 1642.32 332.609 1641.95 332.609C1641.56 332.609 1641.22 332.693 1640.93 332.859C1640.65 333.021 1640.42 333.245 1640.23 333.531C1640.05 333.812 1639.92 334.141 1639.83 334.516C1639.74 334.885 1639.7 335.281 1639.7 335.703Z" fill="#2097F6"/>
<path d="M1518 304H1685V302H1518V304ZM1692 311V358H1694V311H1692ZM1685 365H1518V367H1685V365ZM1511 358V311H1509V358H1511ZM1518 365C1514.13 365 1511 361.866 1511 358H1509C1509 362.971 1513.03 367 1518 367V365ZM1692 358C1692 361.866 1688.87 365 1685 365V367C1689.97 367 1694 362.971 1694 358H1692ZM1685 304C1688.87 304 1692 307.134 1692 311H1694C1694 306.029 1689.97 302 1685 302V304ZM1518 302C1513.03 302 1509 306.029 1509 311H1511C1511 307.134 1514.13 304 1518 304V302Z" fill="#2097F6"/>
</g>
<path d="M1276 194L1179 194C1156.91 194 1139 211.909 1139 234L1139 284.5" stroke="#DE1306" stroke-width="2"/>
<path d="M1139.76 285.66L1147.01 277.672C1147.59 277.029 1147.14 276 1146.27 276L1132.17 276C1131.32 276 1130.86 277.002 1131.41 277.651L1138.26 285.639C1138.65 286.096 1139.36 286.106 1139.76 285.66Z" fill="#DE1306"/>
<circle cx="1280.5" cy="193.5" r="5.5" transform="rotate(90 1280.5 193.5)" fill="#DE1306"/>
<path d="M1461 194L1558 194C1580.09 194 1598 211.909 1598 234L1598 284.5" stroke="#DE1306" stroke-width="2"/>
<path d="M1597.24 285.66L1589.99 277.672C1589.41 277.029 1589.86 276 1590.73 276L1604.83 276C1605.68 276 1606.14 277.002 1605.59 277.651L1598.74 285.639C1598.35 286.096 1597.64 286.106 1597.24 285.66Z" fill="#DE1306"/>
<circle r="5.5" transform="matrix(1.39071e-07 1 1 -1.39071e-07 1456.5 193.5)" fill="#DE1306"/>
<g filter="url(#filter6_d_5_45)">
<path d="M1388 517C1388 512.582 1391.58 509 1396 509H1509C1513.42 509 1517 512.582 1517 517V564C1517 568.418 1513.42 572 1509 572H1396C1391.58 572 1388 568.418 1388 564V517Z" fill="#E5FDE8"/>
<path d="M1436.1 534.625H1437.56L1441.29 543.898L1445.01 534.625H1446.48L1441.85 546H1440.71L1436.1 534.625ZM1435.62 534.625H1436.91L1437.12 541.562V546H1435.62V534.625ZM1445.66 534.625H1446.95V546H1445.45V541.562L1445.66 534.625ZM1452.88 546.156C1452.29 546.156 1451.76 546.057 1451.28 545.859C1450.81 545.656 1450.4 545.372 1450.05 545.008C1449.72 544.643 1449.46 544.211 1449.27 543.711C1449.09 543.211 1449 542.664 1449 542.07V541.742C1449 541.055 1449.1 540.443 1449.3 539.906C1449.51 539.365 1449.78 538.906 1450.13 538.531C1450.48 538.156 1450.88 537.872 1451.32 537.68C1451.76 537.487 1452.22 537.391 1452.7 537.391C1453.3 537.391 1453.82 537.495 1454.26 537.703C1454.7 537.911 1455.06 538.203 1455.34 538.578C1455.62 538.948 1455.83 539.385 1455.97 539.891C1456.1 540.391 1456.17 540.938 1456.17 541.531V542.18H1449.86V541H1454.73V540.891C1454.71 540.516 1454.63 540.151 1454.49 539.797C1454.36 539.443 1454.15 539.151 1453.87 538.922C1453.58 538.693 1453.19 538.578 1452.7 538.578C1452.37 538.578 1452.07 538.648 1451.79 538.789C1451.51 538.924 1451.28 539.128 1451.08 539.398C1450.88 539.669 1450.73 540 1450.62 540.391C1450.51 540.781 1450.45 541.232 1450.45 541.742V542.07C1450.45 542.471 1450.51 542.849 1450.62 543.203C1450.73 543.552 1450.9 543.859 1451.11 544.125C1451.33 544.391 1451.59 544.599 1451.9 544.75C1452.21 544.901 1452.57 544.977 1452.96 544.977C1453.47 544.977 1453.9 544.872 1454.26 544.664C1454.61 544.456 1454.92 544.177 1455.19 543.828L1456.06 544.523C1455.88 544.799 1455.65 545.062 1455.37 545.312C1455.09 545.562 1454.74 545.766 1454.33 545.922C1453.92 546.078 1453.44 546.156 1452.88 546.156ZM1462.84 544.555V540.203C1462.84 539.87 1462.78 539.581 1462.64 539.336C1462.51 539.086 1462.31 538.893 1462.05 538.758C1461.78 538.622 1461.45 538.555 1461.06 538.555C1460.7 538.555 1460.38 538.617 1460.1 538.742C1459.83 538.867 1459.62 539.031 1459.46 539.234C1459.31 539.438 1459.23 539.656 1459.23 539.891H1457.79C1457.79 539.589 1457.87 539.289 1458.02 538.992C1458.18 538.695 1458.4 538.427 1458.7 538.188C1458.99 537.943 1459.35 537.75 1459.76 537.609C1460.17 537.464 1460.64 537.391 1461.15 537.391C1461.76 537.391 1462.3 537.495 1462.77 537.703C1463.25 537.911 1463.62 538.227 1463.88 538.648C1464.15 539.065 1464.29 539.589 1464.29 540.219V544.156C1464.29 544.438 1464.31 544.737 1464.36 545.055C1464.41 545.372 1464.49 545.646 1464.59 545.875V546H1463.08C1463.01 545.833 1462.95 545.612 1462.91 545.336C1462.86 545.055 1462.84 544.794 1462.84 544.555ZM1463.09 540.875L1463.11 541.891H1461.65C1461.24 541.891 1460.87 541.924 1460.55 541.992C1460.22 542.055 1459.95 542.151 1459.73 542.281C1459.52 542.411 1459.35 542.576 1459.23 542.773C1459.12 542.966 1459.06 543.193 1459.06 543.453C1459.06 543.719 1459.12 543.961 1459.24 544.18C1459.36 544.398 1459.54 544.573 1459.78 544.703C1460.03 544.828 1460.33 544.891 1460.68 544.891C1461.12 544.891 1461.51 544.797 1461.85 544.609C1462.19 544.422 1462.46 544.193 1462.66 543.922C1462.86 543.651 1462.97 543.388 1462.98 543.133L1463.6 543.828C1463.57 544.047 1463.47 544.289 1463.3 544.555C1463.14 544.82 1462.93 545.076 1462.66 545.32C1462.39 545.56 1462.07 545.76 1461.7 545.922C1461.34 546.078 1460.93 546.156 1460.47 546.156C1459.9 546.156 1459.39 546.044 1458.96 545.82C1458.53 545.596 1458.2 545.297 1457.96 544.922C1457.73 544.542 1457.61 544.117 1457.61 543.648C1457.61 543.195 1457.7 542.797 1457.88 542.453C1458.05 542.104 1458.31 541.815 1458.64 541.586C1458.97 541.352 1459.38 541.174 1459.84 541.055C1460.31 540.935 1460.84 540.875 1461.41 540.875H1463.09ZM1470.1 537.547V538.656H1465.53V537.547H1470.1ZM1467.08 535.492H1468.52V543.906C1468.52 544.193 1468.57 544.409 1468.66 544.555C1468.74 544.701 1468.86 544.797 1469 544.844C1469.14 544.891 1469.29 544.914 1469.45 544.914C1469.57 544.914 1469.7 544.904 1469.83 544.883C1469.96 544.857 1470.07 544.836 1470.13 544.82L1470.14 546C1470.03 546.036 1469.88 546.07 1469.69 546.102C1469.51 546.138 1469.28 546.156 1469.02 546.156C1468.67 546.156 1468.34 546.086 1468.05 545.945C1467.75 545.805 1467.51 545.57 1467.34 545.242C1467.16 544.909 1467.08 544.461 1467.08 543.898V535.492Z" fill="#65BF73"/>
<path d="M1396 510H1509V508H1396V510ZM1516 517V564H1518V517H1516ZM1509 571H1396V573H1509V571ZM1389 564V517H1387V564H1389ZM1396 571C1392.13 571 1389 567.866 1389 564H1387C1387 568.971 1391.03 573 1396 573V571ZM1516 564C1516 567.866 1512.87 571 1509 571V573C1513.97 573 1518 568.971 1518 564H1516ZM1509 510C1512.87 510 1516 513.134 1516 517H1518C1518 512.029 1513.97 508 1509 508V510ZM1396 508C1391.03 508 1387 512.029 1387 517H1389C1389 513.134 1392.13 510 1396 510V508Z" fill="#65BF73"/>
</g>
<g filter="url(#filter7_d_5_45)">
<path d="M1059 517C1059 512.582 1062.58 509 1067 509H1212C1216.42 509 1220 512.582 1220 517V564C1220 568.418 1216.42 572 1212 572H1067C1062.58 572 1059 568.418 1059 564V517Z" fill="#E5FDE8"/>
<path d="M1112.73 543.125C1112.73 542.859 1112.68 542.625 1112.6 542.422C1112.52 542.214 1112.38 542.026 1112.18 541.859C1111.98 541.693 1111.71 541.534 1111.35 541.383C1111 541.232 1110.56 541.078 1110.02 540.922C1109.46 540.755 1108.95 540.57 1108.5 540.367C1108.05 540.159 1107.66 539.922 1107.34 539.656C1107.01 539.391 1106.77 539.086 1106.59 538.742C1106.42 538.398 1106.34 538.005 1106.34 537.562C1106.34 537.12 1106.43 536.711 1106.61 536.336C1106.79 535.961 1107.05 535.635 1107.39 535.359C1107.73 535.078 1108.14 534.859 1108.62 534.703C1109.09 534.547 1109.62 534.469 1110.2 534.469C1111.06 534.469 1111.78 534.633 1112.38 534.961C1112.97 535.284 1113.43 535.708 1113.74 536.234C1114.05 536.755 1114.21 537.312 1114.21 537.906H1112.71C1112.71 537.479 1112.62 537.102 1112.44 536.773C1112.26 536.44 1111.98 536.18 1111.61 535.992C1111.24 535.799 1110.77 535.703 1110.2 535.703C1109.67 535.703 1109.22 535.784 1108.88 535.945C1108.53 536.107 1108.27 536.326 1108.09 536.602C1107.93 536.878 1107.84 537.193 1107.84 537.547C1107.84 537.786 1107.89 538.005 1107.99 538.203C1108.1 538.396 1108.26 538.576 1108.47 538.742C1108.69 538.909 1108.96 539.062 1109.3 539.203C1109.64 539.344 1110.04 539.479 1110.51 539.609C1111.15 539.792 1111.71 539.995 1112.18 540.219C1112.65 540.443 1113.03 540.695 1113.34 540.977C1113.64 541.253 1113.87 541.568 1114.02 541.922C1114.17 542.271 1114.24 542.667 1114.24 543.109C1114.24 543.573 1114.15 543.992 1113.96 544.367C1113.77 544.742 1113.51 545.062 1113.16 545.328C1112.81 545.594 1112.39 545.799 1111.9 545.945C1111.41 546.086 1110.87 546.156 1110.27 546.156C1109.75 546.156 1109.23 546.083 1108.72 545.938C1108.21 545.792 1107.75 545.573 1107.34 545.281C1106.92 544.99 1106.59 544.63 1106.34 544.203C1106.1 543.771 1105.98 543.271 1105.98 542.703H1107.48C1107.48 543.094 1107.55 543.43 1107.7 543.711C1107.85 543.987 1108.06 544.216 1108.32 544.398C1108.59 544.581 1108.89 544.716 1109.22 544.805C1109.56 544.888 1109.91 544.93 1110.27 544.93C1110.8 544.93 1111.24 544.857 1111.61 544.711C1111.97 544.565 1112.25 544.357 1112.44 544.086C1112.63 543.815 1112.73 543.495 1112.73 543.125ZM1120.93 544.555V540.203C1120.93 539.87 1120.86 539.581 1120.73 539.336C1120.6 539.086 1120.4 538.893 1120.13 538.758C1119.87 538.622 1119.54 538.555 1119.15 538.555C1118.78 538.555 1118.46 538.617 1118.19 538.742C1117.92 538.867 1117.7 539.031 1117.55 539.234C1117.4 539.438 1117.32 539.656 1117.32 539.891H1115.88C1115.88 539.589 1115.95 539.289 1116.11 538.992C1116.27 538.695 1116.49 538.427 1116.78 538.188C1117.08 537.943 1117.43 537.75 1117.84 537.609C1118.26 537.464 1118.72 537.391 1119.23 537.391C1119.85 537.391 1120.39 537.495 1120.86 537.703C1121.33 537.911 1121.7 538.227 1121.97 538.648C1122.24 539.065 1122.38 539.589 1122.38 540.219V544.156C1122.38 544.438 1122.4 544.737 1122.45 545.055C1122.5 545.372 1122.57 545.646 1122.67 545.875V546H1121.16C1121.09 545.833 1121.03 545.612 1120.99 545.336C1120.95 545.055 1120.93 544.794 1120.93 544.555ZM1121.18 540.875L1121.2 541.891H1119.73C1119.32 541.891 1118.96 541.924 1118.63 541.992C1118.31 542.055 1118.04 542.151 1117.82 542.281C1117.6 542.411 1117.43 542.576 1117.32 542.773C1117.21 542.966 1117.15 543.193 1117.15 543.453C1117.15 543.719 1117.21 543.961 1117.33 544.18C1117.45 544.398 1117.63 544.573 1117.87 544.703C1118.11 544.828 1118.41 544.891 1118.77 544.891C1119.21 544.891 1119.6 544.797 1119.94 544.609C1120.28 544.422 1120.54 544.193 1120.74 543.922C1120.95 543.651 1121.05 543.388 1121.07 543.133L1121.69 543.828C1121.65 544.047 1121.55 544.289 1121.39 544.555C1121.23 544.82 1121.01 545.076 1120.74 545.32C1120.48 545.56 1120.16 545.76 1119.79 545.922C1119.42 546.078 1119.01 546.156 1118.55 546.156C1117.98 546.156 1117.48 546.044 1117.05 545.82C1116.62 545.596 1116.29 545.297 1116.05 544.922C1115.81 544.542 1115.7 544.117 1115.7 543.648C1115.7 543.195 1115.78 542.797 1115.96 542.453C1116.14 542.104 1116.39 541.815 1116.73 541.586C1117.06 541.352 1117.46 541.174 1117.93 541.055C1118.4 540.935 1118.92 540.875 1119.5 540.875H1121.18ZM1126.09 539.227V546H1124.63V537.547H1126.01L1126.09 539.227ZM1125.79 541.453L1125.12 541.43C1125.12 540.852 1125.2 540.318 1125.34 539.828C1125.49 539.333 1125.71 538.904 1125.99 538.539C1126.28 538.174 1126.64 537.893 1127.06 537.695C1127.49 537.492 1127.98 537.391 1128.55 537.391C1128.94 537.391 1129.31 537.448 1129.64 537.562C1129.97 537.672 1130.26 537.846 1130.51 538.086C1130.75 538.326 1130.94 538.633 1131.08 539.008C1131.21 539.383 1131.28 539.836 1131.28 540.367V546H1129.84V540.438C1129.84 539.995 1129.76 539.641 1129.61 539.375C1129.46 539.109 1129.26 538.917 1128.98 538.797C1128.71 538.672 1128.4 538.609 1128.03 538.609C1127.6 538.609 1127.25 538.685 1126.96 538.836C1126.67 538.987 1126.45 539.195 1126.27 539.461C1126.1 539.727 1125.98 540.031 1125.9 540.375C1125.83 540.714 1125.79 541.073 1125.79 541.453ZM1131.27 540.656L1130.3 540.953C1130.3 540.49 1130.38 540.044 1130.52 539.617C1130.67 539.19 1130.89 538.81 1131.17 538.477C1131.46 538.143 1131.81 537.88 1132.23 537.688C1132.64 537.49 1133.12 537.391 1133.66 537.391C1134.11 537.391 1134.51 537.451 1134.86 537.57C1135.21 537.69 1135.51 537.875 1135.75 538.125C1135.99 538.37 1136.18 538.685 1136.3 539.07C1136.43 539.456 1136.49 539.914 1136.49 540.445V546H1135.04V540.43C1135.04 539.956 1134.96 539.589 1134.81 539.328C1134.67 539.062 1134.46 538.878 1134.19 538.773C1133.92 538.664 1133.6 538.609 1133.23 538.609C1132.92 538.609 1132.64 538.664 1132.39 538.773C1132.15 538.883 1131.94 539.034 1131.77 539.227C1131.61 539.414 1131.48 539.63 1131.39 539.875C1131.31 540.12 1131.27 540.38 1131.27 540.656ZM1138.3 541.867V541.688C1138.3 541.078 1138.39 540.513 1138.56 539.992C1138.74 539.466 1138.99 539.01 1139.33 538.625C1139.66 538.234 1140.07 537.932 1140.54 537.719C1141.01 537.5 1141.54 537.391 1142.13 537.391C1142.73 537.391 1143.26 537.5 1143.73 537.719C1144.21 537.932 1144.62 538.234 1144.95 538.625C1145.29 539.01 1145.55 539.466 1145.73 539.992C1145.9 540.513 1145.99 541.078 1145.99 541.688V541.867C1145.99 542.477 1145.9 543.042 1145.73 543.562C1145.55 544.083 1145.29 544.539 1144.95 544.93C1144.62 545.315 1144.22 545.617 1143.74 545.836C1143.27 546.049 1142.74 546.156 1142.15 546.156C1141.55 546.156 1141.02 546.049 1140.55 545.836C1140.07 545.617 1139.67 545.315 1139.33 544.93C1138.99 544.539 1138.74 544.083 1138.56 543.562C1138.39 543.042 1138.3 542.477 1138.3 541.867ZM1139.74 541.688V541.867C1139.74 542.289 1139.79 542.688 1139.89 543.062C1139.99 543.432 1140.14 543.76 1140.34 544.047C1140.54 544.333 1140.79 544.56 1141.09 544.727C1141.4 544.888 1141.75 544.969 1142.15 544.969C1142.54 544.969 1142.89 544.888 1143.19 544.727C1143.49 544.56 1143.74 544.333 1143.94 544.047C1144.14 543.76 1144.28 543.432 1144.38 543.062C1144.49 542.688 1144.54 542.289 1144.54 541.867V541.688C1144.54 541.271 1144.49 540.878 1144.38 540.508C1144.28 540.133 1144.13 539.802 1143.93 539.516C1143.73 539.224 1143.48 538.995 1143.18 538.828C1142.88 538.661 1142.53 538.578 1142.13 538.578C1141.74 538.578 1141.39 538.661 1141.09 538.828C1140.79 538.995 1140.54 539.224 1140.34 539.516C1140.14 539.802 1139.99 540.133 1139.89 540.508C1139.79 540.878 1139.74 541.271 1139.74 541.688ZM1153.28 537.547H1154.59V545.82C1154.59 546.565 1154.44 547.201 1154.14 547.727C1153.84 548.253 1153.42 548.651 1152.88 548.922C1152.34 549.198 1151.72 549.336 1151.02 549.336C1150.72 549.336 1150.38 549.289 1149.98 549.195C1149.59 549.107 1149.21 548.953 1148.83 548.734C1148.45 548.521 1148.14 548.232 1147.88 547.867L1148.64 547.008C1148.99 547.435 1149.36 547.732 1149.75 547.898C1150.14 548.065 1150.53 548.148 1150.91 548.148C1151.36 548.148 1151.76 548.062 1152.09 547.891C1152.43 547.719 1152.68 547.464 1152.87 547.125C1153.05 546.792 1153.15 546.38 1153.15 545.891V539.406L1153.28 537.547ZM1147.46 541.867V541.703C1147.46 541.057 1147.54 540.471 1147.69 539.945C1147.84 539.414 1148.07 538.958 1148.35 538.578C1148.64 538.198 1148.99 537.906 1149.41 537.703C1149.82 537.495 1150.28 537.391 1150.8 537.391C1151.33 537.391 1151.79 537.484 1152.19 537.672C1152.59 537.854 1152.93 538.122 1153.2 538.477C1153.48 538.826 1153.71 539.247 1153.87 539.742C1154.03 540.237 1154.14 540.797 1154.2 541.422V542.141C1154.15 542.76 1154.03 543.318 1153.87 543.812C1153.71 544.307 1153.48 544.729 1153.2 545.078C1152.93 545.427 1152.59 545.695 1152.19 545.883C1151.79 546.065 1151.32 546.156 1150.78 546.156C1150.28 546.156 1149.82 546.049 1149.41 545.836C1149 545.622 1148.65 545.323 1148.36 544.938C1148.07 544.552 1147.84 544.099 1147.69 543.578C1147.54 543.052 1147.46 542.482 1147.46 541.867ZM1148.91 541.703V541.867C1148.91 542.289 1148.95 542.685 1149.03 543.055C1149.12 543.424 1149.25 543.75 1149.43 544.031C1149.61 544.312 1149.84 544.534 1150.12 544.695C1150.41 544.852 1150.74 544.93 1151.13 544.93C1151.61 544.93 1152.01 544.828 1152.32 544.625C1152.63 544.422 1152.88 544.154 1153.06 543.82C1153.25 543.487 1153.4 543.125 1153.5 542.734V540.852C1153.44 540.565 1153.35 540.289 1153.23 540.023C1153.12 539.753 1152.97 539.513 1152.78 539.305C1152.6 539.091 1152.37 538.922 1152.1 538.797C1151.83 538.672 1151.51 538.609 1151.15 538.609C1150.75 538.609 1150.41 538.693 1150.12 538.859C1149.84 539.021 1149.61 539.245 1149.43 539.531C1149.25 539.812 1149.12 540.141 1149.03 540.516C1148.95 540.885 1148.91 541.281 1148.91 541.703ZM1156.41 541.867V541.688C1156.41 541.078 1156.49 540.513 1156.67 539.992C1156.85 539.466 1157.1 539.01 1157.44 538.625C1157.77 538.234 1158.17 537.932 1158.65 537.719C1159.12 537.5 1159.65 537.391 1160.24 537.391C1160.84 537.391 1161.37 537.5 1161.84 537.719C1162.32 537.932 1162.73 538.234 1163.06 538.625C1163.4 539.01 1163.66 539.466 1163.84 539.992C1164.01 540.513 1164.1 541.078 1164.1 541.688V541.867C1164.1 542.477 1164.01 543.042 1163.84 543.562C1163.66 544.083 1163.4 544.539 1163.06 544.93C1162.73 545.315 1162.33 545.617 1161.85 545.836C1161.38 546.049 1160.85 546.156 1160.26 546.156C1159.66 546.156 1159.13 546.049 1158.66 545.836C1158.18 545.617 1157.78 545.315 1157.44 544.93C1157.1 544.539 1156.85 544.083 1156.67 543.562C1156.49 543.042 1156.41 542.477 1156.41 541.867ZM1157.85 541.688V541.867C1157.85 542.289 1157.9 542.688 1158 543.062C1158.1 543.432 1158.25 543.76 1158.45 544.047C1158.65 544.333 1158.9 544.56 1159.2 544.727C1159.51 544.888 1159.86 544.969 1160.26 544.969C1160.65 544.969 1161 544.888 1161.3 544.727C1161.6 544.56 1161.85 544.333 1162.05 544.047C1162.24 543.76 1162.39 543.432 1162.49 543.062C1162.6 542.688 1162.65 542.289 1162.65 541.867V541.688C1162.65 541.271 1162.6 540.878 1162.49 540.508C1162.39 540.133 1162.24 539.802 1162.04 539.516C1161.84 539.224 1161.59 538.995 1161.29 538.828C1160.99 538.661 1160.64 538.578 1160.24 538.578C1159.85 538.578 1159.5 538.661 1159.2 538.828C1158.9 538.995 1158.65 539.224 1158.45 539.516C1158.25 539.802 1158.1 540.133 1158 540.508C1157.9 540.878 1157.85 541.271 1157.85 541.688ZM1167.36 539.352V546H1165.91V537.547H1167.28L1167.36 539.352ZM1167.02 541.453L1166.41 541.43C1166.42 540.852 1166.51 540.318 1166.67 539.828C1166.84 539.333 1167.07 538.904 1167.38 538.539C1167.68 538.174 1168.04 537.893 1168.45 537.695C1168.88 537.492 1169.34 537.391 1169.85 537.391C1170.27 537.391 1170.64 537.448 1170.98 537.562C1171.31 537.672 1171.59 537.849 1171.83 538.094C1172.07 538.339 1172.25 538.656 1172.38 539.047C1172.5 539.432 1172.56 539.904 1172.56 540.461V546H1171.11V540.445C1171.11 540.003 1171.04 539.648 1170.91 539.383C1170.78 539.112 1170.59 538.917 1170.34 538.797C1170.09 538.672 1169.79 538.609 1169.42 538.609C1169.06 538.609 1168.73 538.685 1168.44 538.836C1168.15 538.987 1167.89 539.195 1167.68 539.461C1167.47 539.727 1167.31 540.031 1167.19 540.375C1167.07 540.714 1167.02 541.073 1167.02 541.453Z" fill="#65BF73"/>
<path d="M1067 510H1212V508H1067V510ZM1219 517V564H1221V517H1219ZM1212 571H1067V573H1212V571ZM1060 564V517H1058V564H1060ZM1067 571C1063.13 571 1060 567.866 1060 564H1058C1058 568.971 1062.03 573 1067 573V571ZM1219 564C1219 567.866 1215.87 571 1212 571V573C1216.97 573 1221 568.971 1221 564H1219ZM1212 510C1215.87 510 1219 513.134 1219 517H1221C1221 512.029 1216.97 508 1212 508V510ZM1067 508C1062.03 508 1058 512.029 1058 517H1060C1060 513.134 1063.13 510 1067 510V508Z" fill="#65BF73"/>
</g>
<g filter="url(#filter8_d_5_45)">
<path d="M1687 517C1687 512.582 1690.58 509 1695 509H1813C1817.42 509 1821 512.582 1821 517V564C1821 568.418 1817.42 572 1813 572H1695C1690.58 572 1687 568.418 1687 564V517Z" fill="#E5FDE8"/>
<path d="M1738.65 540.68H1735.77L1735.75 539.469H1738.37C1738.8 539.469 1739.18 539.396 1739.5 539.25C1739.82 539.104 1740.07 538.896 1740.25 538.625C1740.43 538.349 1740.52 538.021 1740.52 537.641C1740.52 537.224 1740.44 536.885 1740.28 536.625C1740.12 536.359 1739.88 536.167 1739.55 536.047C1739.23 535.922 1738.82 535.859 1738.32 535.859H1736.1V546H1734.59V534.625H1738.32C1738.9 534.625 1739.42 534.685 1739.88 534.805C1740.34 534.919 1740.73 535.102 1741.05 535.352C1741.37 535.596 1741.61 535.909 1741.78 536.289C1741.95 536.669 1742.03 537.125 1742.03 537.656C1742.03 538.125 1741.91 538.549 1741.67 538.93C1741.43 539.305 1741.1 539.612 1740.67 539.852C1740.25 540.091 1739.76 540.245 1739.19 540.312L1738.65 540.68ZM1738.58 546H1735.17L1736.02 544.773H1738.58C1739.06 544.773 1739.46 544.69 1739.8 544.523C1740.14 544.357 1740.39 544.122 1740.57 543.82C1740.75 543.513 1740.84 543.151 1740.84 542.734C1740.84 542.312 1740.76 541.948 1740.61 541.641C1740.46 541.333 1740.22 541.096 1739.9 540.93C1739.58 540.763 1739.16 540.68 1738.65 540.68H1736.5L1736.52 539.469H1739.45L1739.77 539.906C1740.32 539.953 1740.78 540.109 1741.16 540.375C1741.54 540.635 1741.83 540.969 1742.03 541.375C1742.23 541.781 1742.34 542.229 1742.34 542.719C1742.34 543.427 1742.18 544.026 1741.87 544.516C1741.56 545 1741.12 545.37 1740.56 545.625C1740 545.875 1739.34 546 1738.58 546ZM1745.79 538.875V546H1744.34V537.547H1745.75L1745.79 538.875ZM1748.43 537.5L1748.42 538.844C1748.3 538.818 1748.19 538.802 1748.08 538.797C1747.97 538.786 1747.85 538.781 1747.72 538.781C1747.39 538.781 1747.09 538.833 1746.84 538.938C1746.58 539.042 1746.36 539.188 1746.19 539.375C1746.01 539.562 1745.87 539.786 1745.77 540.047C1745.67 540.302 1745.6 540.583 1745.57 540.891L1745.16 541.125C1745.16 540.615 1745.21 540.135 1745.31 539.688C1745.42 539.24 1745.58 538.844 1745.79 538.5C1746 538.151 1746.27 537.88 1746.6 537.688C1746.93 537.49 1747.33 537.391 1747.79 537.391C1747.89 537.391 1748.01 537.404 1748.15 537.43C1748.28 537.451 1748.38 537.474 1748.43 537.5ZM1753.12 546.156C1752.53 546.156 1751.99 546.057 1751.52 545.859C1751.04 545.656 1750.63 545.372 1750.29 545.008C1749.95 544.643 1749.69 544.211 1749.51 543.711C1749.33 543.211 1749.23 542.664 1749.23 542.07V541.742C1749.23 541.055 1749.34 540.443 1749.54 539.906C1749.74 539.365 1750.02 538.906 1750.37 538.531C1750.72 538.156 1751.11 537.872 1751.55 537.68C1752 537.487 1752.46 537.391 1752.93 537.391C1753.53 537.391 1754.05 537.495 1754.49 537.703C1754.93 537.911 1755.3 538.203 1755.58 538.578C1755.86 538.948 1756.07 539.385 1756.2 539.891C1756.34 540.391 1756.41 540.938 1756.41 541.531V542.18H1750.09V541H1754.96V540.891C1754.94 540.516 1754.86 540.151 1754.73 539.797C1754.6 539.443 1754.39 539.151 1754.1 538.922C1753.82 538.693 1753.42 538.578 1752.93 538.578C1752.6 538.578 1752.3 538.648 1752.02 538.789C1751.75 538.924 1751.51 539.128 1751.31 539.398C1751.11 539.669 1750.96 540 1750.85 540.391C1750.74 540.781 1750.69 541.232 1750.69 541.742V542.07C1750.69 542.471 1750.74 542.849 1750.85 543.203C1750.97 543.552 1751.13 543.859 1751.34 544.125C1751.56 544.391 1751.83 544.599 1752.13 544.75C1752.45 544.901 1752.8 544.977 1753.2 544.977C1753.71 544.977 1754.14 544.872 1754.49 544.664C1754.85 544.456 1755.16 544.177 1755.42 543.828L1756.3 544.523C1756.11 544.799 1755.88 545.062 1755.6 545.312C1755.32 545.562 1754.97 545.766 1754.56 545.922C1754.16 546.078 1753.67 546.156 1753.12 546.156ZM1763.08 544.555V540.203C1763.08 539.87 1763.01 539.581 1762.88 539.336C1762.74 539.086 1762.55 538.893 1762.28 538.758C1762.02 538.622 1761.69 538.555 1761.3 538.555C1760.93 538.555 1760.61 538.617 1760.34 538.742C1760.07 538.867 1759.85 539.031 1759.7 539.234C1759.54 539.438 1759.47 539.656 1759.47 539.891H1758.02C1758.02 539.589 1758.1 539.289 1758.26 538.992C1758.41 538.695 1758.64 538.427 1758.93 538.188C1759.23 537.943 1759.58 537.75 1759.99 537.609C1760.41 537.464 1760.87 537.391 1761.38 537.391C1762 537.391 1762.54 537.495 1763.01 537.703C1763.48 537.911 1763.85 538.227 1764.12 538.648C1764.39 539.065 1764.52 539.589 1764.52 540.219V544.156C1764.52 544.438 1764.55 544.737 1764.59 545.055C1764.65 545.372 1764.72 545.646 1764.82 545.875V546H1763.31C1763.24 545.833 1763.18 545.612 1763.14 545.336C1763.1 545.055 1763.08 544.794 1763.08 544.555ZM1763.33 540.875L1763.34 541.891H1761.88C1761.47 541.891 1761.1 541.924 1760.78 541.992C1760.46 542.055 1760.19 542.151 1759.97 542.281C1759.75 542.411 1759.58 542.576 1759.47 542.773C1759.35 542.966 1759.3 543.193 1759.3 543.453C1759.3 543.719 1759.36 543.961 1759.48 544.18C1759.6 544.398 1759.78 544.573 1760.02 544.703C1760.26 544.828 1760.56 544.891 1760.91 544.891C1761.36 544.891 1761.75 544.797 1762.09 544.609C1762.42 544.422 1762.69 544.193 1762.89 543.922C1763.09 543.651 1763.2 543.388 1763.22 543.133L1763.84 543.828C1763.8 544.047 1763.7 544.289 1763.54 544.555C1763.38 544.82 1763.16 545.076 1762.89 545.32C1762.62 545.56 1762.31 545.76 1761.94 545.922C1761.57 546.078 1761.16 546.156 1760.7 546.156C1760.13 546.156 1759.63 546.044 1759.2 545.82C1758.77 545.596 1758.43 545.297 1758.2 544.922C1757.96 544.542 1757.84 544.117 1757.84 543.648C1757.84 543.195 1757.93 542.797 1758.11 542.453C1758.29 542.104 1758.54 541.815 1758.88 541.586C1759.21 541.352 1759.61 541.174 1760.08 541.055C1760.55 540.935 1761.07 540.875 1761.65 540.875H1763.33ZM1772.12 544.359V534H1773.58V546H1772.25L1772.12 544.359ZM1766.44 541.867V541.703C1766.44 541.057 1766.52 540.471 1766.67 539.945C1766.83 539.414 1767.06 538.958 1767.35 538.578C1767.65 538.198 1768 537.906 1768.41 537.703C1768.82 537.495 1769.28 537.391 1769.78 537.391C1770.31 537.391 1770.78 537.484 1771.17 537.672C1771.57 537.854 1771.91 538.122 1772.19 538.477C1772.47 538.826 1772.69 539.247 1772.85 539.742C1773.01 540.237 1773.12 540.797 1773.19 541.422V542.141C1773.13 542.76 1773.02 543.318 1772.85 543.812C1772.69 544.307 1772.47 544.729 1772.19 545.078C1771.91 545.427 1771.57 545.695 1771.17 545.883C1770.77 546.065 1770.3 546.156 1769.77 546.156C1769.27 546.156 1768.82 546.049 1768.41 545.836C1768 545.622 1767.65 545.323 1767.35 544.938C1767.06 544.552 1766.83 544.099 1766.67 543.578C1766.52 543.052 1766.44 542.482 1766.44 541.867ZM1767.89 541.703V541.867C1767.89 542.289 1767.93 542.685 1768.02 543.055C1768.1 543.424 1768.24 543.75 1768.42 544.031C1768.6 544.312 1768.84 544.534 1769.12 544.695C1769.4 544.852 1769.73 544.93 1770.12 544.93C1770.6 544.93 1771 544.828 1771.3 544.625C1771.62 544.422 1771.87 544.154 1772.05 543.82C1772.24 543.487 1772.39 543.125 1772.49 542.734V540.852C1772.43 540.565 1772.34 540.289 1772.22 540.023C1772.1 539.753 1771.95 539.513 1771.77 539.305C1771.58 539.091 1771.36 538.922 1771.09 538.797C1770.82 538.672 1770.51 538.609 1770.14 538.609C1769.74 538.609 1769.4 538.693 1769.12 538.859C1768.84 539.021 1768.6 539.245 1768.42 539.531C1768.24 539.812 1768.1 540.141 1768.02 540.516C1767.93 540.885 1767.89 541.281 1767.89 541.703Z" fill="#65BF73"/>
<path d="M1695 510H1813V508H1695V510ZM1820 517V564H1822V517H1820ZM1813 571H1695V573H1813V571ZM1688 564V517H1686V564H1688ZM1695 571C1691.13 571 1688 567.866 1688 564H1686C1686 568.971 1690.03 573 1695 573V571ZM1820 564C1820 567.866 1816.87 571 1813 571V573C1817.97 573 1822 568.971 1822 564H1820ZM1813 510C1816.87 510 1820 513.134 1820 517H1822C1822 512.029 1817.97 508 1813 508V510ZM1695 508C1690.03 508 1686 512.029 1686 517H1688C1688 513.134 1691.13 510 1695 510V508Z" fill="#65BF73"/>
</g>
<g clip-path="url(#clip0_5_45)">
<line x1="1598.5" y1="390" x2="1598.5" y2="541" stroke="#2097F7" stroke-width="2"/>
<circle cx="1598" cy="385.5" r="5.5" transform="rotate(90 1598 385.5)" fill="#2097F6"/>
</g>
<g clip-path="url(#clip1_5_45)">
<path d="M1139.24 491.66L1146.48 483.672C1147.07 483.029 1146.61 482 1145.74 482L1131.65 482C1130.79 482 1130.33 483.002 1130.89 483.651L1137.74 491.639C1138.13 492.096 1138.83 492.106 1139.24 491.66Z" fill="#2097F6"/>
<line x1="1138.5" y1="392" x2="1138.5" y2="482" stroke="#2097F7" stroke-width="2"/>
<circle cx="1138" cy="387.5" r="5.5" transform="rotate(90 1138 387.5)" fill="#2097F6"/>
</g>
<path d="M1534.34 541.237L1542.33 548.483C1542.97 549.066 1544 548.61 1544 547.743L1544 533.649C1544 532.795 1543 532.334 1542.35 532.89L1534.36 539.737C1533.9 540.129 1533.89 540.832 1534.34 541.237Z" fill="#2097F6"/>
<line x1="1634" y1="540.5" x2="1544" y2="540.5" stroke="#2097F7" stroke-width="2"/>
<path d="M1669.66 539.763L1661.67 532.517C1661.03 531.934 1660 532.39 1660 533.257V547.351C1660 548.205 1661 548.666 1661.65 548.11L1669.64 541.263C1670.1 540.871 1670.11 540.168 1669.66 539.763Z" fill="#2097F6"/>
<line x1="1570" y1="540.5" x2="1660" y2="540.5" stroke="#2097F7" stroke-width="2"/>
<path d="M869 0L869 763" stroke="#EBE9E9" stroke-dasharray="10 10"/>
<defs>
<filter id="filter0_d_5_45" x="345" y="162" width="137" height="67" filterUnits="userSpaceOnUse" color-interpolation-filters="sRGB">
<feFlood flood-opacity="0" result="BackgroundImageFix"/>
<feColorMatrix in="SourceAlpha" type="matrix" values="0 0 0 0 0 0 0 0 0 0 0 0 0 0 0 0 0 0 127 0" result="hardAlpha"/>
<feOffset dx="4" dy="4"/>
<feColorMatrix type="matrix" values="0 0 0 0 0.952941 0 0 0 0 0.639216 0 0 0 0 0.619608 0 0 0 1 0"/>
<feBlend mode="normal" in2="BackgroundImageFix" result="effect1_dropShadow_5_45"/>
<feBlend mode="normal" in="SourceGraphic" in2="effect1_dropShadow_5_45" result="shape"/>
</filter>
<filter id="filter1_d_5_45" x="125" y="303" width="121" height="67" filterUnits="userSpaceOnUse" color-interpolation-filters="sRGB">
<feFlood flood-opacity="0" result="BackgroundImageFix"/>
<feColorMatrix in="SourceAlpha" type="matrix" values="0 0 0 0 0 0 0 0 0 0 0 0 0 0 0 0 0 0 127 0" result="hardAlpha"/>
<feOffset dx="4" dy="4"/>
<feColorMatrix type="matrix" values="0 0 0 0 0.513733 0 0 0 0 0.767915 0 0 0 0 0.970833 0 0 0 1 0"/>
<feBlend mode="normal" in2="BackgroundImageFix" result="effect1_dropShadow_5_45"/>
<feBlend mode="normal" in="SourceGraphic" in2="effect1_dropShadow_5_45" result="shape"/>
</filter>
<filter id="filter2_d_5_45" x="580" y="303" width="125" height="67" filterUnits="userSpaceOnUse" color-interpolation-filters="sRGB">
<feFlood flood-opacity="0" result="BackgroundImageFix"/>
<feColorMatrix in="SourceAlpha" type="matrix" values="0 0 0 0 0 0 0 0 0 0 0 0 0 0 0 0 0 0 127 0" result="hardAlpha"/>
<feOffset dx="4" dy="4"/>
<feColorMatrix type="matrix" values="0 0 0 0 0.513733 0 0 0 0 0.767915 0 0 0 0 0.970833 0 0 0 1 0"/>
<feBlend mode="normal" in2="BackgroundImageFix" result="effect1_dropShadow_5_45"/>
<feBlend mode="normal" in="SourceGraphic" in2="effect1_dropShadow_5_45" result="shape"/>
</filter>
<filter id="filter3_d_5_45" x="1302" y="162" width="137" height="67" filterUnits="userSpaceOnUse" color-interpolation-filters="sRGB">
<feFlood flood-opacity="0" result="BackgroundImageFix"/>
<feColorMatrix in="SourceAlpha" type="matrix" values="0 0 0 0 0 0 0 0 0 0 0 0 0 0 0 0 0 0 127 0" result="hardAlpha"/>
<feOffset dx="4" dy="4"/>
<feColorMatrix type="matrix" values="0 0 0 0 0.952941 0 0 0 0 0.639216 0 0 0 0 0.619608 0 0 0 1 0"/>
<feBlend mode="normal" in2="BackgroundImageFix" result="effect1_dropShadow_5_45"/>
<feBlend mode="normal" in="SourceGraphic" in2="effect1_dropShadow_5_45" result="shape"/>
</filter>
<filter id="filter4_d_5_45" x="1056" y="303" width="175" height="67" filterUnits="userSpaceOnUse" color-interpolation-filters="sRGB">
<feFlood flood-opacity="0" result="BackgroundImageFix"/>
<feColorMatrix in="SourceAlpha" type="matrix" values="0 0 0 0 0 0 0 0 0 0 0 0 0 0 0 0 0 0 127 0" result="hardAlpha"/>
<feOffset dx="4" dy="4"/>
<feColorMatrix type="matrix" values="0 0 0 0 0.513733 0 0 0 0 0.767915 0 0 0 0 0.970833 0 0 0 1 0"/>
<feBlend mode="normal" in2="BackgroundImageFix" result="effect1_dropShadow_5_45"/>
<feBlend mode="normal" in="SourceGraphic" in2="effect1_dropShadow_5_45" result="shape"/>
</filter>
<filter id="filter5_d_5_45" x="1510" y="303" width="187" height="67" filterUnits="userSpaceOnUse" color-interpolation-filters="sRGB">
<feFlood flood-opacity="0" result="BackgroundImageFix"/>
<feColorMatrix in="SourceAlpha" type="matrix" values="0 0 0 0 0 0 0 0 0 0 0 0 0 0 0 0 0 0 127 0" result="hardAlpha"/>
<feOffset dx="4" dy="4"/>
<feColorMatrix type="matrix" values="0 0 0 0 0.513733 0 0 0 0 0.767915 0 0 0 0 0.970833 0 0 0 1 0"/>
<feBlend mode="normal" in2="BackgroundImageFix" result="effect1_dropShadow_5_45"/>
<feBlend mode="normal" in="SourceGraphic" in2="effect1_dropShadow_5_45" result="shape"/>
</filter>
<filter id="filter6_d_5_45" x="1388" y="509" width="133" height="67" filterUnits="userSpaceOnUse" color-interpolation-filters="sRGB">
<feFlood flood-opacity="0" result="BackgroundImageFix"/>
<feColorMatrix in="SourceAlpha" type="matrix" values="0 0 0 0 0 0 0 0 0 0 0 0 0 0 0 0 0 0 127 0" result="hardAlpha"/>
<feOffset dx="4" dy="4"/>
<feColorMatrix type="matrix" values="0 0 0 0 0.578021 0 0 0 0 0.775 0 0 0 0 0.608662 0 0 0 1 0"/>
<feBlend mode="normal" in2="BackgroundImageFix" result="effect1_dropShadow_5_45"/>
<feBlend mode="normal" in="SourceGraphic" in2="effect1_dropShadow_5_45" result="shape"/>
</filter>
<filter id="filter7_d_5_45" x="1059" y="509" width="165" height="67" filterUnits="userSpaceOnUse" color-interpolation-filters="sRGB">
<feFlood flood-opacity="0" result="BackgroundImageFix"/>
<feColorMatrix in="SourceAlpha" type="matrix" values="0 0 0 0 0 0 0 0 0 0 0 0 0 0 0 0 0 0 127 0" result="hardAlpha"/>
<feOffset dx="4" dy="4"/>
<feColorMatrix type="matrix" values="0 0 0 0 0.578021 0 0 0 0 0.775 0 0 0 0 0.608662 0 0 0 1 0"/>
<feBlend mode="normal" in2="BackgroundImageFix" result="effect1_dropShadow_5_45"/>
<feBlend mode="normal" in="SourceGraphic" in2="effect1_dropShadow_5_45" result="shape"/>
</filter>
<filter id="filter8_d_5_45" x="1687" y="509" width="138" height="67" filterUnits="userSpaceOnUse" color-interpolation-filters="sRGB">
<feFlood flood-opacity="0" result="BackgroundImageFix"/>
<feColorMatrix in="SourceAlpha" type="matrix" values="0 0 0 0 0 0 0 0 0 0 0 0 0 0 0 0 0 0 127 0" result="hardAlpha"/>
<feOffset dx="4" dy="4"/>
<feColorMatrix type="matrix" values="0 0 0 0 0.578021 0 0 0 0 0.775 0 0 0 0 0.608662 0 0 0 1 0"/>
<feBlend mode="normal" in2="BackgroundImageFix" result="effect1_dropShadow_5_45"/>
<feBlend mode="normal" in="SourceGraphic" in2="effect1_dropShadow_5_45" result="shape"/>
</filter>
<clipPath id="clip0_5_45">
<rect width="172" height="19" fill="white" transform="translate(1608 380) rotate(90)"/>
</clipPath>
<clipPath id="clip1_5_45">
<rect width="111" height="19" fill="white" transform="translate(1148 382) rotate(90)"/>
</clipPath>
</defs>
</svg>
